<?xml version="1.0" ?>
<!-- Uploaded to: SVG Repo, www.svgrepo.com, Generator: SVG Repo Mixer Tools -->
<svg width="800px" height="800px" viewBox="0 0 20 20" version="1.1" xmlns="http://www.w3.org/2000/svg">
<g id="layer1">
<path d="M 3 0 L 3 20 L 17 20 L 17 19 L 16 19 L 4 19 L 4 1 L 12 1 L 12 4 L 12 5 L 16 5 L 16 12 L 17 12 L 17 5 L 17 4 L 13 0 L 12 0 L 3 0 z M 13 1.3535156 L 15.646484 4 L 13 4 L 13 1.3535156 z M 7 13 L 6.8164062 13.007812 L 6.6328125 13.033203 L 6.453125 13.076172 L 6.2773438 13.134766 L 6.1074219 13.208984 L 5.9472656 13.298828 L 5.7949219 13.404297 L 5.6523438 13.521484 L 5.5214844 13.652344 L 5.4042969 13.794922 L 5.3007812 13.947266 L 5.2089844 14.107422 L 5.1347656 14.277344 L 5.0761719 14.451172 L 5.0351562 14.632812 L 5.0078125 14.816406 L 5 15 L 5 16 L 5.0078125 16.183594 L 5.0351562 16.367188 L 5.0761719 16.546875 L 5.1347656 16.722656 L 5.2089844 16.890625 L 5.3007812 17.052734 L 5.4042969 17.205078 L 5.5214844 17.347656 L 5.6523438 17.478516 L 5.7949219 17.595703 L 5.9472656 17.699219 L 6.1074219 17.791016 L 6.2773438 17.865234 L 6.453125 17.923828 L 6.6328125 17.964844 L 6.8164062 17.992188 L 7 18 L 7.1835938 17.992188 L 7.3671875 17.964844 L 7.546875 17.923828 L 7.7226562 17.865234 L 7.8925781 17.791016 L 8.0527344 17.699219 L 8.2050781 17.595703 L 8.3476562 17.478516 L 8.4785156 17.347656 L 8.5957031 17.205078 L 8.6992188 17.052734 L 8.7890625 16.894531 L 7.8925781 16.445312 L 7.8652344 16.5 L 7.7929688 16.607422 L 7.7070312 16.707031 L 7.609375 16.792969 L 7.5 16.865234 L 7.3828125 16.923828 L 7.2597656 16.964844 L 7.1308594 16.992188 L 7 17 L 6.8691406 16.992188 L 6.7402344 16.964844 L 6.6171875 16.923828 L 6.5 16.865234 L 6.390625 16.792969 L 6.2929688 16.707031 L 6.2070312 16.607422 L 6.1347656 16.5 L 6.0761719 16.382812 L 6.0332031 16.257812 L 6.0078125 16.130859 L 6 16 L 6 15 L 6.0078125 14.869141 L 6.0332031 14.740234 L 6.0761719 14.617188 L 6.1347656 14.5 L 6.2070312 14.390625 L 6.2929688 14.292969 L 6.390625 14.207031 L 6.5 14.134766 L 6.6171875 14.076172 L 6.7402344 14.033203 L 6.8691406 14.007812 L 7 14 L 7.1308594 14.007812 L 7.2597656 14.033203 L 7.3828125 14.076172 L 7.5 14.134766 L 7.609375 14.207031 L 7.7070312 14.292969 L 7.7929688 14.390625 L 7.8652344 14.5 L 7.8925781 14.554688 L 8.7890625 14.105469 L 8.6992188 13.947266 L 8.5957031 13.794922 L 8.4785156 13.652344 L 8.3476562 13.521484 L 8.2050781 13.404297 L 8.0527344 13.298828 L 7.8925781 13.208984 L 7.7226562 13.134766 L 7.546875 13.076172 L 7.3671875 13.033203 L 7.1835938 13.007812 L 7 13 z M 11.5 13 C 10.671573 13 10 13.671573 10 14.5 C 10 15.328427 10.671573 16 11.5 16 L 12.5 16 C 12.776142 16 13 16.223858 13 16.5 C 13 16.776142 12.776142 17 12.5 17 L 10 17 L 10 18 L 12.5 18 C 13.328427 18 14 17.328427 14 16.5 C 14 15.671573 13.328427 15 12.5 15 L 11.5 15 C 11.223858 15 11 14.776142 11 14.5 C 11 14.223858 11.223858 14 11.5 14 L 14 14 L 14 13 L 11.5 13 z M 16.5 13 C 15.671573 13 15 13.671573 15 14.5 C 15 15.328427 15.671573 16 16.5 16 L 17.5 16 C 17.776142 16 18 16.223858 18 16.5 C 18 16.776142 17.776142 17 17.5 17 L 15 17 L 15 18 L 17.5 18 C 18.328427 18 19 17.328427 19 16.5 C 19 15.671573 18.328427 15 17.5 15 L 16.5 15 C 16.223858 15 16 14.776142 16 14.5 C 16 14.223858 16.223858 14 16.5 14 L 19 14 L 19 13 L 16.5 13 z " style="fill:#FFF4F4; fill-opacity:1; stroke:none; stroke-width:0px;"/>
</g>
</svg>