<?xml version="1.0" ?>
<!-- Uploaded to: SVG Repo, www.svgrepo.com, Generator: SVG Repo Mixer Tools -->
<svg width="800px" height="800px" viewBox="0 0 20 20" version="1.1" xmlns="http://www.w3.org/2000/svg">
<g id="layer1">
<path d="M 3 0 L 3 20 L 17 20 L 17 19 L 16 19 L 4 19 L 4 1 L 12 1 L 12 4 L 12 5 L 16 5 L 16 12 L 17 12 L 17 5 L 17 4 L 13 0 L 12 0 L 3 0 z M 13 1.3535156 L 15.646484 4 L 13 4 L 13 1.3535156 z M 12 13 L 12 16 L 11.992188 16.130859 L 11.966797 16.257812 L 11.923828 16.382812 L 11.865234 16.5 L 11.792969 16.607422 L 11.707031 16.707031 L 11.609375 16.792969 L 11.5 16.865234 L 11.382812 16.923828 L 11.259766 16.964844 L 11.130859 16.992188 L 11 17 L 10.869141 16.992188 L 10.740234 16.964844 L 10.617188 16.923828 L 10.5 16.865234 L 10.390625 16.792969 L 10.292969 16.707031 L 10.207031 16.607422 L 10.134766 16.5 L 10.076172 16.382812 L 10.033203 16.257812 L 10.007812 16.130859 L 10 16 L 9 16 L 9.0078125 16.183594 L 9.0351562 16.367188 L 9.0761719 16.546875 L 9.1347656 16.722656 L 9.2089844 16.890625 L 9.3007812 17.052734 L 9.4042969 17.205078 L 9.5214844 17.347656 L 9.6523438 17.478516 L 9.7949219 17.595703 L 9.9472656 17.699219 L 10.107422 17.791016 L 10.277344 17.865234 L 10.453125 17.923828 L 10.632812 17.964844 L 10.816406 17.992188 L 11 18 L 11.183594 17.992188 L 11.367188 17.964844 L 11.546875 17.923828 L 11.722656 17.865234 L 11.892578 17.791016 L 12.052734 17.699219 L 12.205078 17.595703 L 12.347656 17.478516 L 12.478516 17.347656 L 12.595703 17.205078 L 12.699219 17.052734 L 12.791016 16.890625 L 12.865234 16.722656 L 12.923828 16.546875 L 12.964844 16.367188 L 12.992188 16.183594 L 13 16 L 13 13 L 12 13 z M 15.5 13 A 1.5 1.4999999 0 0 0 14 14.5 A 1.5 1.4999999 0 0 0 15.5 16 L 16.5 16 A 0.5 0.5 0 0 1 17 16.5 A 0.5 0.5 0 0 1 16.5 17 L 14 17 L 14 18 L 16.5 18 A 1.5 1.4999999 0 0 0 18 16.5 A 1.5 1.4999999 0 0 0 16.5 15 L 15.5 15 A 0.5 0.5 0 0 1 15 14.5 A 0.5 0.5 0 0 1 15.5 14 L 18 14 L 18 13 L 15.5 13 z " style="fill:#FFF4F4; fill-opacity:1; stroke:none; stroke-width:0px;"/>
</g>
</svg>